<?xml version="1.0" encoding="utf-8"?>
<!-- Generator: Adobe Illustrator 28.0.0, SVG Export Plug-In . SVG Version: 6.00 Build 0)  -->
<svg version="1.1" id="Capa_1" xmlns="http://www.w3.org/2000/svg" xmlns:xlink="http://www.w3.org/1999/xlink" x="0px" y="0px"
	 viewBox="0 0 400 400" style="enable-background:new 0 0 400 400;" xml:space="preserve">
<style type="text/css">
	.st0{fill:#3C6AB1;}
</style>
<g>
	<path class="st0" d="M224.1,140.6h-59.4c-16.9,0-30.7,13.8-30.7,30.7v59.4c0,16.9,13.8,30.7,30.7,30.7h59.4
		c16.9,0,30.7-13.8,30.7-30.7v-59.4C254.8,154.4,241,140.6,224.1,140.6z M195,237.7c-20.2,0-36.7-16.4-36.7-36.7
		c0-20.2,16.4-36.7,36.7-36.7c20.2,0,36.7,16.4,36.7,36.7C231.7,221.2,215.2,237.7,195,237.7z M233.8,170.6c-4.8,0-8.7-3.9-8.7-8.7
		c0-4.8,3.9-8.7,8.7-8.7c4.8,0,8.7,3.9,8.7,8.7C242.5,166.7,238.6,170.6,233.8,170.6z"/>
	<path class="st0" d="M195,177.5c-12.9,0-23.5,10.5-23.5,23.5s10.5,23.5,23.5,23.5c12.9,0,23.5-10.5,23.5-23.5
		S207.9,177.5,195,177.5z"/>
	<path class="st0" d="M194.4,58c-79,0-143,64-143,143s64,143,143,143s143-64,143-143S273.4,58,194.4,58z M268.8,230.7
		c0,24.7-20.1,44.7-44.7,44.7h-59.4c-24.7,0-44.7-20.1-44.7-44.7v-59.4c0-24.7,20.1-44.7,44.7-44.7h59.4c24.7,0,44.7,20.1,44.7,44.7
		V230.7z"/>
</g>
</svg>
