<?xml version="1.0" encoding="utf-8"?>
<!-- Generator: Adobe Illustrator 28.0.0, SVG Export Plug-In . SVG Version: 6.00 Build 0)  -->
<svg version="1.1" id="Capa_1" xmlns="http://www.w3.org/2000/svg" xmlns:xlink="http://www.w3.org/1999/xlink" x="0px" y="0px"
	 viewBox="0 0 400 400" style="enable-background:new 0 0 400 400;" xml:space="preserve">
<style type="text/css">
	.st0{fill:#3C6AB1;}
</style>
<path class="st0" d="M196.5,45C115.6,45,50,110.6,50,191.5S115.6,338,196.5,338S343,272.4,343,191.5S277.4,45,196.5,45z
	 M259.7,175.8L259.7,175.8c-1.4,0.1-2.7,0.2-4.1,0.2c-14.8,0-28.7-7.5-36.8-19.9v67.8c0,27.7-22.4,50.1-50.1,50.1
	c-27.7,0-50.1-22.4-50.1-50.1s22.4-50.1,50.1-50.1c1,0,2.1,0.1,3.1,0.2v24.7c-1-0.1-2-0.3-3.1-0.3c-14.1,0-25.6,11.4-25.6,25.6
	c0,14.1,11.4,25.6,25.6,25.6c14.1,0,26.6-11.1,26.6-25.2l0.2-115.1h23.6c2.2,21.2,19.3,37.7,40.5,39.3V175.8z"/>
</svg>
