<?xml version="1.0" encoding="utf-8"?>
<!-- Generator: Adobe Illustrator 28.0.0, SVG Export Plug-In . SVG Version: 6.00 Build 0)  -->
<svg version="1.1" id="Capa_1" xmlns="http://www.w3.org/2000/svg" xmlns:xlink="http://www.w3.org/1999/xlink" x="0px" y="0px"
	 viewBox="0 0 400 400" style="enable-background:new 0 0 400 400;" xml:space="preserve">
<style type="text/css">
	.st0{fill:#3C6AB1;}
</style>
<g>
	<path class="st0" d="M200.4,58c-78.5,0-142.1,63.6-142.1,142.1c0,78.5,63.6,142.1,142.1,142.1c78.5,0,142.1-63.6,142.1-142.1
		C342.5,121.6,278.9,58,200.4,58z M203.5,276.2c-13.9,0-27-3.6-38.4-9.9l-44,14.1l14.4-42.7c-7.2-12-11.4-26-11.4-41.1
		c0-43.9,35.6-79.5,79.5-79.5c43.9,0,79.5,35.6,79.5,79.5C283,240.6,247.4,276.2,203.5,276.2z"/>
	<path class="st0" d="M203.5,130.5c-36.5,0-66.2,29.7-66.2,66.2c0,14.5,4.7,27.9,12.6,38.8l-8.3,24.6l25.4-8.1
		c10.5,6.9,23,10.9,36.4,10.9c36.5,0,66.2-29.7,66.2-66.2C269.7,160.2,240,130.5,203.5,130.5z M243,226.9
		c-1.9,4.7-10.3,8.9-14.1,9.1c-3.7,0.2-3.8,2.9-24.2-6c-20.3-8.9-32.6-30.6-33.5-31.9c-1-1.4-7.9-11.3-7.5-21.3
		c0.4-10,5.8-14.7,7.7-16.7c1.9-2,4.1-2.4,5.5-2.3c1.4,0.1,2.7,0.3,3.9,0.3c1.2,0,2.9-0.6,4.4,3.6c1.5,4.1,5.2,14.3,5.7,15.3
		c0.5,1,0.8,2.2,0,3.6c-0.7,1.3-1.1,2.2-2.2,3.3c-1.1,1.1-2.2,2.6-3.2,3.4c-1.1,1-2.2,2-1,4.1c1.1,2.1,4.9,8.9,10.8,14.5
		c7.5,7.2,14,9.6,15.9,10.7c2,1.1,3.2,1,4.4-0.3c1.2-1.3,5.3-5.7,6.7-7.7c1.4-2,2.8-1.6,4.6-0.8c1.8,0.7,11.6,6,13.6,7.1
		c2,1.1,3.3,1.7,3.8,2.5C245.1,218.1,244.9,222.2,243,226.9z"/>
</g>
</svg>
